<?xml version="1.0" encoding="UTF-8"?>
<svg id="Layer_1" data-name="Layer 1" xmlns="http://www.w3.org/2000/svg" viewBox="0 0 725.57 150">
  <defs>
    <style>
      .cls-1 {
        fill: #02235f;
      }

      .cls-2 {
        fill: #0ba7da;
      }
    </style>
  </defs>
  <path class="cls-2" d="M128.28,75.31c-2.56,62.05-72.08,82.91-122.84,63.32,37.96,6.57,86.97,1.83,105.36-37.58,18.13-38.83,4.26-74.34-30.6-96.79,31.29,9.61,50.8,38.01,48.08,71.04Z"/>
  <path class="cls-2" d="M60.93,144.43c24.57-15.01,43.73-44.6,37.78-74.21-5.2-25.85-24.45-46.39-49.53-53.3,22.45,13.82,40.07,35.04,41.18,62.83,1,24.88-13.89,48.38-31.31,64.83.62-.05,1.25-.1,1.87-.16Z"/>
  <path class="cls-2" d="M69.42,88.16c.55,11.66-2.94,23.26-8.74,33.29-4.46,7.72-14.5,23.46-24.35,22.9,14.01-15.21,25.91-36.38,23.57-57.86-2.8-25.7-20.68-44.01-41.92-55.79,26.8,6.38,50.02,28.5,51.44,57.46Z"/>
  <path class="cls-2" d="M121.26,79.18c-4.39,13.39-20.43,24.26-32.54,29.42-23.77,10.12-53.75,9.22-77.75.65,46.66,6.91,99.66-1.32,111.38-52.41,1.93,8.56.3,13.69-1.09,22.34Z"/>
  <path class="cls-2" d="M116.53,35.76c-12.58,41.24-62.27,50.38-100.31,49.21,24.97,5.78,55.46,3.18,77.94-10.07,9.59-5.65,17.77-13.44,23.63-22.93,5.03-8.14,4.09-8.01-1.26-16.22Z"/>
  <g>
    <path class="cls-1" d="M288.65,24.39l-22.44,104.74-22.91-.41,14.88-69.59-44.95,49.19-2.6-.05-21.07-49.47-14.94,68.67-22.91-.41,22.69-104.73,23.45.42,21.04,50.7,44.36-49.52,25.41.46Z"/>
    <path class="cls-1" d="M377.71,45.82l-48.47-.87-4.87,22.44,44.46.8-4.36,19.3-44.29-.8-5.1,23.49,49.31.89-4.2,19.75-72.26-1.3,22.65-104.73,71.34,1.29-4.2,19.75Z"/>
    <path class="cls-1" d="M417.92,133.96c-11.81-.21-21.44-2.72-28.87-7.51-7.44-4.79-12.14-11.21-14.11-19.25l21.07-9.23c2.71,10.46,10.75,15.82,24.12,16.06,6.13.11,10.97-.8,14.51-2.74,3.55-1.94,5.68-4.55,6.41-7.84.96-3.79-.19-6.76-3.43-8.92-3.25-2.16-8.92-4.52-17.01-7.07-10.86-3.5-19-7.83-24.43-12.98-5.42-5.15-7.16-12.32-5.21-21.5,2.07-9.48,7.18-16.57,15.35-21.28,8.17-4.71,17.43-6.97,27.79-6.78,9.58.17,17.73,2.37,24.46,6.6,6.72,4.23,11.52,10.07,14.4,17.53l-20.4,9.24c-3.97-8.78-10.85-13.26-20.66-13.44-4.68-.08-8.57.75-11.66,2.49-3.1,1.75-5.07,4.17-5.9,7.25-.96,3.69.16,6.64,3.35,8.85,3.19,2.21,8.61,4.64,16.25,7.28,1.99.74,3.65,1.32,4.99,1.74,1.33.42,2.99,1.03,4.98,1.82,1.99.79,3.62,1.52,4.89,2.19,1.27.68,2.73,1.5,4.39,2.48,1.65.98,3.03,1.96,4.13,2.93,1.1.97,2.22,2.09,3.37,3.36,1.15,1.27,2.01,2.62,2.6,4.03.59,1.41,1.09,2.95,1.51,4.61.41,1.66.61,3.49.57,5.49-.04,2-.3,4.1-.78,6.29-2.07,9.38-7.29,16.49-15.68,21.35-8.39,4.86-18.72,7.17-30.97,6.95Z"/>
    <path class="cls-1" d="M528.9,135.97c-11.7-.21-21.79-2.95-30.28-8.21-8.49-5.26-14.47-12.2-17.93-20.83-3.47-8.62-4.16-17.97-2.08-28.05,3.06-15.36,11.23-27.93,24.51-37.71,13.27-9.77,28.49-14.51,45.65-14.2,11.14.2,20.71,2.58,28.71,7.13,8,4.55,13.88,10.76,17.64,18.64l-21.24,9.53c-5.06-9.9-14.28-14.98-27.65-15.22-11.14-.2-20.87,2.83-29.17,9.09-8.3,6.26-13.5,14.48-15.58,24.65-2.19,10.08-.56,18.37,4.9,24.87,5.45,6.51,13.59,9.86,24.4,10.05,14.48.26,25.89-4.64,34.21-14.7l18.69,11.3c-6.49,7.49-14.54,13.36-24.14,17.59-9.61,4.23-19.82,6.25-30.62,6.06Z"/>
    <path class="cls-1" d="M647.4,138.11c-16.94-.31-30.26-6.08-39.98-17.32-9.72-11.24-12.88-24.49-9.48-39.75,3.18-15.46,11.4-28.06,24.67-37.78,13.27-9.72,28.88-14.42,46.82-14.1,16.71.3,29.96,6.1,39.73,17.39,9.77,11.29,13.02,24.57,9.73,39.83-3.29,15.46-11.54,28.03-24.76,37.7-13.22,9.68-28.79,14.35-46.73,14.03ZM650.44,117.88c10.92.2,20.7-2.83,29.34-9.08,8.64-6.25,14.05-14.37,16.24-24.34,2.07-9.97.22-18.29-5.57-24.96-5.79-6.66-14.09-10.09-24.89-10.29-10.81-.19-20.42,2.86-28.84,9.17-8.42,6.31-13.72,14.5-15.91,24.57-2.19,9.97-.47,18.24,5.15,24.8,5.62,6.56,13.78,9.94,24.48,10.13Z"/>
  </g>
</svg>