<?xml version="1.0" encoding="UTF-8"?>
<svg id="Layer_1" data-name="Layer 1" xmlns="http://www.w3.org/2000/svg" viewBox="0 0 200 150">
  <defs>
    <style>
      .cls-1 {
        fill: #02235f;
      }

      .cls-2 {
        fill: #0ba7da;
      }
    </style>
  </defs>
  <g>
    <path class="cls-1" d="M49.71,100.16l-7.07,35.6-7.77-.02,4.69-23.65-14.98,16.9h-.88s-7.39-16.66-7.39-16.66l-4.71,23.34-7.77-.02,7.16-35.6,7.95.02,7.39,17.07,14.78-17,8.61.03Z"/>
    <path class="cls-1" d="M80,106.97l-16.43-.05-1.54,7.63,15.07.05-1.38,6.56-15.01-.05-1.61,7.99,16.71.05-1.32,6.71-24.49-.08,7.15-35.6,24.18.08-1.32,6.71Z"/>
    <path class="cls-1" d="M94.07,136.63c-4-.01-7.28-.81-9.82-2.4-2.54-1.59-4.17-3.74-4.88-6.45l7.09-3.24c.97,3.53,3.72,5.3,8.25,5.32,2.08,0,3.71-.33,4.9-1,1.19-.67,1.9-1.57,2.13-2.69.31-1.29-.1-2.29-1.21-3.01-1.11-.72-3.05-1.49-5.8-2.31-3.7-1.13-6.48-2.56-8.34-4.28-1.86-1.72-2.49-4.14-1.87-7.26.65-3.22,2.35-5.65,5.09-7.29,2.74-1.64,5.87-2.45,9.38-2.44,3.25.01,6.02.71,8.32,2.11,2.3,1.4,3.96,3.35,4.97,5.87l-6.86,3.24c-1.39-2.96-3.74-4.44-7.07-4.45-1.59,0-2.9.3-3.94.9-1.04.61-1.7,1.44-1.96,2.49-.31,1.25.09,2.25,1.18,2.98,1.09.73,2.94,1.53,5.54,2.38.68.24,1.24.43,1.7.57.45.14,1.02.33,1.7.59.68.26,1.24.5,1.67.72.43.22.93.5,1.5.82.57.32,1.04.65,1.41.97.38.32.76.7,1.16,1.12.4.43.7.88.9,1.35.21.48.38.99.53,1.55.15.56.22,1.18.22,1.86,0,.68-.08,1.39-.23,2.14-.65,3.19-2.39,5.62-5.21,7.31-2.82,1.69-6.31,2.52-10.46,2.51Z"/>
    <path class="cls-1" d="M131.68,136.75c-3.97-.01-7.4-.89-10.3-2.63-2.9-1.74-4.96-4.06-6.18-6.97-1.22-2.9-1.5-6.07-.85-9.49.96-5.22,3.66-9.52,8.11-12.9,4.45-3.38,9.58-5.06,15.4-5.04,3.78.01,7.03.77,9.76,2.27,2.73,1.5,4.76,3.58,6.07,6.23l-7.15,3.34c-1.77-3.33-4.91-5-9.44-5.02-3.78-.01-7.06,1.06-9.84,3.23-2.78,2.16-4.5,4.97-5.15,8.43-.69,3.43-.1,6.23,1.79,8.4,1.88,2.18,4.65,3.27,8.32,3.28,4.91.02,8.75-1.7,11.52-5.15l6.39,3.74c-2.16,2.57-4.86,4.6-8.09,6.08-3.23,1.48-6.68,2.22-10.35,2.21Z"/>
    <path class="cls-1" d="M171.84,136.88c-5.74-.02-10.29-1.91-13.63-5.67-3.35-3.76-4.49-8.23-3.41-13.42,1-5.26,3.72-9.56,8.17-12.93,4.45-3.36,9.71-5.03,15.79-5.01,5.66.02,10.18,1.91,13.55,5.69,3.37,3.78,4.53,8.26,3.5,13.45-1.04,5.26-3.77,9.56-8.2,12.9-4.43,3.35-9.68,5.01-15.76,4.99ZM172.77,130.01c3.7.01,7-1.06,9.9-3.23,2.9-2.16,4.69-4.94,5.38-8.33.65-3.39-.02-6.2-2.01-8.43-2-2.23-4.82-3.35-8.49-3.36-3.66-.01-6.91,1.07-9.73,3.25-2.82,2.18-4.58,4.98-5.27,8.41-.69,3.39-.07,6.18,1.87,8.38,1.94,2.19,4.72,3.3,8.35,3.31Z"/>
  </g>
  <path class="cls-2" d="M131.21,45.89c-1.32,34.18-39.59,45.77-67.57,35.05,20.92,3.57,47.9.88,57.98-20.84,9.93-21.41,2.24-40.95-16.99-53.27,17.25,5.25,28.03,20.86,26.58,39.06Z"/>
  <path class="cls-2" d="M94.22,84.05c13.51-8.3,24.02-24.62,20.7-40.92-2.9-14.23-13.53-25.51-27.35-29.29,12.38,7.58,22.12,19.24,22.77,34.55.58,13.7-7.58,26.67-17.15,35.75l1.03-.09Z"/>
  <path class="cls-2" d="M98.81,53.05c.32,6.42-1.58,12.81-4.77,18.35-2.45,4.26-7.95,12.94-13.38,12.65,7.69-8.4,14.22-20.07,12.9-31.9-1.58-14.15-11.45-24.21-23.17-30.67,14.77,3.47,27.59,15.63,28.41,31.58Z"/>
  <path class="cls-2" d="M127.35,48.03c-2.4,7.38-11.22,13.39-17.88,16.25-13.08,5.61-29.59,5.15-42.82.47,25.71,3.74,54.89-.87,61.27-29.02,1.08,4.71.19,7.54-.57,12.31Z"/>
  <path class="cls-2" d="M124.69,24.13c-6.87,22.73-34.23,27.84-55.18,27.25,13.76,3.15,30.55,1.67,42.91-5.65,5.27-3.13,9.77-7.43,12.98-12.66,2.76-4.49,2.24-4.42-.72-8.93Z"/>
</svg>